<svg width="225" height="225" xmlns="http://www.w3.org/2000/svg" xmlns:xlink="http://www.w3.org/1999/xlink" xml:space="preserve" overflow="hidden"><defs><clipPath id="clip0"><rect x="968" y="172" width="225" height="225"/></clipPath></defs><g clip-path="url(#clip0)" transform="translate(-968 -172)"><path d="M1129.5 297.946C1140.58 275.267 1143.41 251.326 1139.04 231.189 1138.52 228.803 1135.95 227.546 1133.75 228.603 1115.17 237.524 1098.02 254.462 1086.93 277.14 1075.02 301.516 1072.64 327.349 1078.49 348.35 1098.66 340.064 1117.58 322.322 1129.5 297.946Z" stroke="#000000" stroke-width="0.439453" fill="#FFCBCE"/><path d="M1031.58 297.946C1020.49 275.267 1017.66 251.326 1022.03 231.189 1022.55 228.803 1025.12 227.546 1027.32 228.603 1045.9 237.524 1063.05 254.462 1074.14 277.14 1086.06 301.516 1088.43 327.349 1082.58 348.35 1062.42 340.064 1043.49 322.322 1031.58 297.946Z" stroke="#000000" stroke-width="0.439453" fill="#FFCBCE"/><path d="M1085.77 214.284 1081.27 214.078C1067.29 231.544 1059.85 253.667 1059.85 281.121 1059.85 310.379 1065.18 336.533 1080.8 354.109 1096.41 336.533 1106.34 310.379 1106.34 281.121 1106.34 255.105 1098.49 231.543 1085.77 214.284Z" stroke="#000000" stroke-width="0.439453" fill="#FFB3B7"/><path d="M1065.08 281.121C1065.08 255.107 1073.05 231.543 1085.77 214.284 1085.07 213.328 1084.35 212.396 1083.62 211.48 1082.19 209.695 1079.4 209.695 1077.98 211.48 1064 228.945 1055.25 253.667 1055.25 281.121 1055.25 310.379 1065.18 336.533 1080.8 354.109 1082.51 352.18 1084.14 350.131 1085.71 348.003 1072.97 330.739 1065.08 307.169 1065.08 281.121Z" stroke="#000000" stroke-width="0.439453" fill="#FF9A9F"/><path d="M1144.79 352.426C1165.99 344.594 1182.67 330.889 1192.42 315.178 1193.73 313.075 1192.72 310.36 1190.37 309.61 1172.75 304.008 1151.16 304.434 1129.96 312.266 1106.96 320.76 1089.28 336.16 1080 353.535 1098.35 360.704 1121.79 360.92 1144.79 352.426Z" stroke="#000000" stroke-width="0.439453" fill="#FF8086"/><path d="M1016.21 352.426C995.005 344.594 978.325 330.889 968.577 315.178 967.272 313.075 968.275 310.36 970.633 309.61 988.253 304.008 1009.84 304.434 1031.04 312.266 1054.04 320.76 1071.72 336.16 1081 353.535 1062.65 360.704 1039.21 360.92 1016.21 352.426Z" stroke="#000000" stroke-width="0.439453" fill="#FF8086"/><path d="M1114.08 285.918C1133.5 266.504 1157.16 255.209 1179.4 252.742 1181.67 252.49 1183.64 254.459 1183.38 256.731 1180.92 278.965 1169.62 302.63 1150.21 322.044 1129.52 342.733 1104 354.202 1080.54 355.591L1077.78 349.95 1080.5 346.211C1080.5 346.211 1081.92 344.46 1081.93 344.414 1085.75 324.231 1096.64 303.359 1114.08 285.918Z" stroke="#000000" stroke-width="0.439453" fill="#FF9A9F"/><path d="M1046.99 285.918C1029.06 267.984 1007.49 256.978 986.783 253.461L983.161 257.254C985.627 279.488 994.949 299.144 1014.36 318.558 1035.05 339.246 1054.4 351.409 1077.86 352.798L1079.45 346.212C1075.95 325.475 1064.95 303.876 1046.99 285.918Z" stroke="#000000" stroke-width="0.439453" fill="#FF9A9F"/><path d="M1080.5 346.211C1059.76 342.71 1037.12 331.709 1019.16 313.75 1001.22 295.817 990.301 274.17 986.783 253.46 985.073 253.17 983.372 252.931 981.676 252.742 979.404 252.49 977.435 254.459 977.688 256.731 980.154 278.966 991.449 302.631 1010.86 322.045 1031.55 342.733 1057.07 354.202 1080.54 355.591Z" stroke="#000000" stroke-width="0.439453" fill="#FF8086"/></g></svg>