<?xml version="1.0" encoding="UTF-8"?>
<svg xmlns="http://www.w3.org/2000/svg" xmlns:xlink="http://www.w3.org/1999/xlink" width="1024px" height="1024px" viewBox="0 0 1024 1024" version="1.1">
<g id="surface1">
<path style=" stroke:none;fill-rule:nonzero;fill:rgb(100%,79.607843%,80.784314%);fill-opacity:1;" d="M 734.988281 573.195312 C 785.441406 469.980469 798.308594 361.019531 778.414062 269.375 C 776.058594 258.515625 764.355469 252.796875 754.339844 257.605469 C 669.804688 298.207031 591.726562 375.292969 541.273438 478.507812 C 487.046875 589.441406 476.238281 707.011719 502.859375 802.589844 C 594.628906 764.878906 680.765625 684.128906 734.988281 573.195312 Z M 734.988281 573.195312 "/>
<path style=" stroke:none;fill-rule:nonzero;fill:rgb(100%,79.607843%,80.784314%);fill-opacity:1;" d="M 289.339844 573.195312 C 238.886719 469.980469 226.019531 361.019531 245.914062 269.375 C 248.273438 258.515625 259.972656 252.796875 269.988281 257.605469 C 354.527344 298.207031 432.601562 375.292969 483.054688 478.507812 C 537.28125 589.441406 548.089844 707.011719 521.46875 802.589844 C 429.699219 764.878906 343.566406 684.128906 289.339844 573.195312 Z M 289.339844 573.195312 "/>
<path style=" stroke:none;fill-rule:nonzero;fill:rgb(100%,70.196078%,71.764706%);fill-opacity:1;" d="M 535.980469 192.4375 L 515.5 191.5 C 451.882812 270.988281 418 371.675781 418 496.625 C 418 629.78125 442.292969 748.804688 513.347656 828.796875 C 584.398438 748.804688 629.605469 629.78125 629.605469 496.625 C 629.605469 378.21875 593.859375 270.988281 535.980469 192.4375 Z M 535.980469 192.4375 "/>
<path style=" stroke:none;fill-rule:nonzero;fill:rgb(100%,60.392157%,62.352941%);fill-opacity:1;" d="M 441.824219 496.625 C 441.824219 378.230469 478.113281 270.984375 535.980469 192.4375 C 532.777344 188.089844 529.519531 183.847656 526.183594 179.675781 C 519.679688 171.550781 507.011719 171.550781 500.511719 179.675781 C 436.894531 259.164062 397.085938 371.675781 397.085938 496.625 C 397.085938 629.78125 442.292969 748.804688 513.347656 828.796875 C 521.140625 820.019531 528.566406 810.695312 535.714844 801.011719 C 477.71875 722.4375 441.824219 615.171875 441.824219 496.625 Z M 441.824219 496.625 "/>
<path style=" stroke:none;fill-rule:nonzero;fill:rgb(100%,50.196078%,52.54902%);fill-opacity:1;" d="M 804.578125 821.140625 C 901.097656 785.492188 977.007812 723.121094 1021.375 651.621094 C 1027.3125 642.050781 1022.746094 629.691406 1012.015625 626.28125 C 931.824219 600.78125 833.59375 602.722656 737.074219 638.367188 C 632.40625 677.023438 551.972656 747.109375 509.71875 826.183594 C 593.226562 858.8125 699.910156 859.796875 804.578125 821.140625 Z M 804.578125 821.140625 "/>
<path style=" stroke:none;fill-rule:nonzero;fill:rgb(100%,50.196078%,52.54902%);fill-opacity:1;" d="M 219.421875 821.140625 C 122.902344 785.492188 46.992188 723.121094 2.625 651.621094 C -3.3125 642.050781 1.253906 629.691406 11.984375 626.28125 C 92.175781 600.78125 190.40625 602.722656 286.925781 638.367188 C 391.59375 677.023438 472.027344 747.109375 514.28125 826.183594 C 430.773438 858.8125 324.089844 859.796875 219.421875 821.140625 Z M 219.421875 821.140625 "/>
<path style=" stroke:none;fill-rule:nonzero;fill:rgb(100%,60.392157%,62.352941%);fill-opacity:1;" d="M 664.839844 518.453125 C 753.191406 430.097656 860.894531 378.691406 962.085938 367.46875 C 972.429688 366.320312 981.386719 375.277344 980.238281 385.621094 C 969.015625 486.808594 917.609375 594.515625 829.253906 682.867188 C 735.097656 777.023438 618.96875 829.21875 512.160156 835.542969 L 499.621094 809.871094 L 511.996094 792.851562 C 511.996094 792.851562 518.476562 784.882812 518.515625 784.675781 C 535.90625 692.820312 585.464844 597.828125 664.839844 518.453125 Z M 664.839844 518.453125 "/>
<path style=" stroke:none;fill-rule:nonzero;fill:rgb(100%,60.392157%,62.352941%);fill-opacity:1;" d="M 359.492188 518.453125 C 277.871094 436.835938 179.738281 386.742188 85.484375 370.734375 L 69 388 C 80.222656 489.191406 122.644531 578.644531 211 667 C 305.15625 761.15625 393.195312 816.511719 500 822.835938 L 507.222656 792.855469 C 491.285156 698.480469 441.222656 600.183594 359.492188 518.453125 Z M 359.492188 518.453125 "/>
<path style=" stroke:none;fill-rule:nonzero;fill:rgb(100%,50.196078%,52.54902%);fill-opacity:1;" d="M 512 792.855469 C 417.621094 776.917969 314.558594 726.855469 232.820312 645.121094 C 151.207031 563.507812 101.492188 464.984375 85.480469 370.734375 C 77.699219 369.410156 69.960938 368.324219 62.242188 367.46875 C 51.898438 366.320312 42.941406 375.277344 44.089844 385.621094 C 55.3125 486.8125 106.71875 594.515625 195.074219 682.871094 C 289.230469 777.027344 405.359375 829.222656 512.164062 835.542969 Z M 512 792.855469 "/>
</g>
</svg>
